<?xml version="1.0" encoding="UTF-8"?>
<!DOCTYPE svg PUBLIC "-//W3C//DTD SVG 1.1//EN" "http://www.w3.org/Graphics/SVG/1.1/DTD/svg11.dtd">
<!-- Creator: CorelDRAW -->
<svg xmlns="http://www.w3.org/2000/svg" xml:space="preserve" width="297mm" height="210mm" version="1.1" style="shape-rendering:geometricPrecision; text-rendering:geometricPrecision; image-rendering:optimizeQuality; fill-rule:evenodd; clip-rule:evenodd"
viewBox="0 0 29700 21000"
 xmlns:xlink="http://www.w3.org/1999/xlink"
 xmlns:xodm="http://www.corel.com/coreldraw/odm/2003">
 <defs>
  <style type="text/css">
   <![CDATA[
    .str0 {stroke:white;stroke-width:20;stroke-miterlimit:22.9256}
    .fil1 {fill:white}
    .fil0 {fill:white;fill-rule:nonzero}
   ]]>
  </style>
 </defs>
 <g id="Camada_x0020_1">
  <metadata id="CorelCorpID_0Corel-Layer"/>
  <path class="fil0 str0" d="M13590.4 -3381.91c3231.63,0 6157.52,1310.01 8275.41,3427.9 2117.89,2117.89 3427.9,5043.73 3427.9,8275.4 0,3231.63 -1310.01,6157.52 -3427.9,8275.41 -2117.89,2117.89 -5043.78,3427.9 -8275.41,3427.9 -3231.67,0 -6157.51,-1310.01 -8275.4,-3427.9 -2117.89,-2117.89 -3427.9,-5043.78 -3427.9,-8275.41 0,-3231.67 1310.01,-6157.51 3427.9,-8275.4 2117.89,-2117.89 5043.73,-3427.9 8275.4,-3427.9zm7216.72 4486.59c-1846.82,-1846.83 -4398.38,-2989.18 -7216.72,-2989.18 -2818.37,0 -5369.89,1142.35 -7216.71,2989.18 -1846.83,1846.82 -2989.18,4398.34 -2989.18,7216.71 0,2818.34 1142.35,5369.9 2989.18,7216.72 1846.82,1846.83 4398.34,2989.18 7216.71,2989.18 2818.34,0 5369.9,-1142.35 7216.72,-2989.18 1846.83,-1846.82 2989.18,-4398.38 2989.18,-7216.72 0,-2818.37 -1142.35,-5369.89 -2989.18,-7216.71z"/>
  <g id="_2527782764784">
   <rect class="fil1 str0" x="3963.79" y="7787.21" width="2841.29" height="1068.32" rx="311.38" ry="534.16"/>
   <rect class="fil1 str0" x="20375.64" y="7787.21" width="2841.29" height="1068.32" rx="311.38" ry="534.16"/>
  </g>
  <g id="_2527782762864">
   <rect class="fil1 str0" transform="matrix(-1.12416E-13 -4.2446 -7.28138 1.92844E-13 14124.5 17948)" width="669.39" height="146.72" rx="73.36" ry="73.36"/>
   <rect class="fil1 str0" transform="matrix(-1.12416E-13 -4.2446 -7.28138 1.92844E-13 14124.5 1536.12)" width="669.39" height="146.72" rx="73.36" ry="73.36"/>
  </g>
  <g id="_2527782764640">
   <rect class="fil1 str0" transform="matrix(3.00139 -3.00139 -5.14871 -5.14871 7161.09 15506.1)" width="669.39" height="146.72" rx="73.36" ry="73.36"/>
   <rect class="fil1 str0" transform="matrix(3.00139 -3.00139 -5.14871 -5.14871 18766 3901.19)" width="669.39" height="146.72" rx="73.36" ry="73.36"/>
  </g>
  <g id="_2527782763632">
   <rect class="fil1 str0" transform="matrix(-3.00139 -3.00139 5.14871 -5.14871 20019.7 15506.1)" width="669.39" height="146.72" rx="73.36" ry="73.36"/>
   <rect class="fil1 str0" transform="matrix(-3.00139 -3.00139 5.14871 -5.14871 8414.8 3901.19)" width="669.39" height="146.72" rx="73.36" ry="73.36"/>
  </g>
  <path class="fil1 str0" d="M13590.36 2362.69c244.96,0 445.35,200.31 445.35,445.3l0 5156.94 3192.53 0c244.92,0 445.26,200.35 445.26,445.35 0,244.91 -200.34,445.26 -445.26,445.26l-3637.88 0 -11.46 -0.13 -11.37 -0.47 -11.29 -0.72 -11.25 -0.98 -11.12 -1.31 -0.05 0 -11.03 -1.53 -11 -1.87 -10.86 -2.08 -0.04 0 -10.78 -2.37 -10.7 -2.64 -10.57 -2.88 -0.04 0 -10.49 -3.14 -10.35 -3.36 -0.05 -0.04 -10.23 -3.61 -0.04 0 -10.14 -3.9 -10.02 -4.12 -0.04 0 -9.89 -4.33 -0.04 0 -9.77 -4.58 0 -0.05 -9.63 -4.79 -0.05 0 -9.5 -5.05 -9.38 -5.27 -0.05 0 -9.21 -5.47 -0.04 0 -9.08 -5.69 0 -0.04 -8.96 -5.9 -0.04 0 -8.75 -6.11 -0.04 0 -8.61 -6.33 -0.05 0 -8.44 -6.54 -0.05 0 -8.32 -6.7 -0.04 0 -8.1 -6.92 -0.05 0 -7.98 -7.09 -0.04 -0.04 -7.77 -7.26 -0.04 -0.04 -7.64 -7.43 -0.04 -0.04 -7.43 -7.64 -0.04 0 -7.26 -7.81 -0.04 -0.05 -7.05 -7.98 -0.04 0 -6.88 -8.15 -0.04 -0.04 -6.66 -8.32 -0.05 0 -6.49 -8.49 -0.04 0 -6.29 -8.66 -0.04 0 -6.07 -8.78 -0.04 -0.04 -5.9 -8.92 -0.04 -0.04 -5.65 -9.08 -0.04 -0.05 -5.43 -9.21 -0.05 -0.04 -5.22 -9.34 -0.04 -0.04 -5.01 -9.51 -0.04 -0.04 -4.8 -9.59 -0.04 -0.05 -4.54 -9.76 -0.04 -0.04 -4.29 -9.89 -0.04 -0.04 -4.08 -9.98 -0.04 -0.04 -3.86 -10.14 -0.05 0 -3.6 -10.28 -0.05 -0.04 -3.31 -10.31 -0.04 -0.05 -3.1 -10.48 -0.04 0 -2.84 -10.57 -0.05 -0.04 -2.59 -10.66 -0.04 -0.04 -2.33 -10.78 -0.05 -0.04 -2.03 -10.83 -0.05 -0.04 -1.82 -10.95 -0.04 -0.04 -1.49 -11.04 -0.04 -0.04 -1.27 -11.08 -0.05 -0.04 -0.93 -11.21 -0.04 -0.04 -0.68 -11.25 -0.04 -0.04 -0.43 -11.33 -0.04 -0.05 -0.09 -11.41 -0.04 -0.05 0 -5602.24c0,-244.99 200.35,-445.3 445.3,-445.3z"/>
 </g>
</svg>
